<svg xmlns="http://www.w3.org/2000/svg" xmlns:xlink="http://www.w3.org/1999/xlink" width="500" zoomAndPan="magnify" viewBox="0 0 375 374.999991" height="500" preserveAspectRatio="xMidYMid meet" version="1.0"><defs><g/><clipPath id="d98f9abf39"><path d="M 9.546875 112.5 L 139.296875 112.5 L 139.296875 262.5 L 9.546875 262.5 Z M 9.546875 112.5 " clip-rule="nonzero"/></clipPath></defs><path fill="#3b1b72" d="M 77.9375 183.292969 L 77.9375 227.726562 C 77.9375 228.648438 77.378906 229.480469 76.523438 229.832031 L 51.558594 240.019531 C 50.855469 240.304688 50.058594 240.226562 49.429688 239.804688 C 48.804688 239.378906 48.425781 238.671875 48.425781 237.917969 L 48.425781 126.671875 C 48.425781 125.417969 49.441406 124.398438 50.699219 124.398438 L 101.226562 124.398438 C 101.941406 124.398438 102.613281 124.738281 103.042969 125.308594 C 103.472656 125.882812 103.605469 126.621094 103.40625 127.308594 L 97.460938 147.6875 C 97.179688 148.660156 96.289062 149.324219 95.28125 149.324219 L 77.9375 149.324219 L 77.9375 158.367188 L 95.28125 158.367188 C 96.535156 158.367188 97.550781 159.386719 97.550781 160.640625 L 97.550781 181.023438 C 97.550781 182.277344 96.535156 183.292969 95.28125 183.292969 Z M 93.578125 144.78125 L 98.195312 128.945312 L 52.96875 128.945312 L 52.96875 234.535156 L 73.390625 226.199219 L 73.390625 181.023438 C 73.390625 179.765625 74.410156 178.75 75.664062 178.75 L 93.007812 178.75 L 93.007812 162.910156 L 75.664062 162.910156 C 74.410156 162.910156 73.390625 161.894531 73.390625 160.640625 L 73.390625 147.054688 C 73.390625 145.800781 74.410156 144.78125 75.664062 144.78125 Z M 93.578125 144.78125 " fill-opacity="1" fill-rule="evenodd"/><g clip-path="url(#d98f9abf39)"><path fill="#3b1b72" d="M 33.566406 130.34375 L 33.566406 114.785156 C 33.566406 113.527344 34.582031 112.511719 35.835938 112.511719 L 119.058594 112.511719 C 119.789062 112.511719 120.472656 112.863281 120.902344 113.457031 C 121.328125 114.046875 121.445312 114.808594 121.214844 115.503906 L 116.265625 130.34375 L 136.890625 130.34375 C 137.605469 130.34375 138.277344 130.679688 138.707031 131.25 C 139.132812 131.816406 139.269531 132.554688 139.074219 133.242188 L 127.308594 174.421875 L 133.207031 227.476562 C 133.289062 228.226562 132.992188 228.972656 132.414062 229.460938 C 131.835938 229.949219 131.050781 230.121094 130.320312 229.910156 L 91.609375 218.851562 L 91.609375 236.355469 C 91.609375 237.253906 91.078125 238.066406 90.257812 238.429688 L 36.761719 262.210938 C 36.058594 262.519531 35.246094 262.457031 34.597656 262.039062 C 33.953125 261.621094 33.566406 260.902344 33.566406 260.132812 L 33.566406 230.636719 L 12.609375 235.875 C 11.894531 236.054688 11.132812 235.875 10.574219 235.390625 C 10.015625 234.90625 9.726562 234.179688 9.800781 233.445312 L 15.714844 174.273438 L 9.808594 132.9375 C 9.71875 132.285156 9.914062 131.625 10.34375 131.128906 C 10.773438 130.628906 11.402344 130.34375 12.058594 130.34375 Z M 38.109375 117.054688 L 38.109375 132.617188 C 38.109375 133.871094 37.089844 134.890625 35.835938 134.890625 L 14.679688 134.890625 L 20.253906 173.90625 C 20.277344 174.085938 20.28125 174.273438 20.265625 174.453125 L 14.640625 230.683594 L 35.285156 225.523438 C 35.964844 225.351562 36.683594 225.503906 37.234375 225.9375 C 37.785156 226.367188 38.109375 227.027344 38.109375 227.726562 L 38.109375 256.636719 L 87.0625 234.878906 L 87.0625 215.839844 C 87.0625 215.125 87.398438 214.453125 87.96875 214.023438 C 88.539062 213.59375 89.273438 213.457031 89.960938 213.652344 L 128.316406 224.609375 L 122.742188 174.476562 C 122.710938 174.183594 122.734375 173.886719 122.816406 173.605469 L 133.878906 134.890625 L 113.113281 134.890625 C 112.382812 134.890625 111.699219 134.539062 111.269531 133.945312 C 110.84375 133.351562 110.726562 132.589844 110.957031 131.898438 L 115.90625 117.054688 Z M 38.109375 117.054688 " fill-opacity="1" fill-rule="evenodd"/></g><g fill="#ff00ff" fill-opacity="1"><g transform="translate(134.25983, 211.813559)"><g><path d="M 7.722656 -26.347656 L 18.625 -26.347656 L 18.625 -5.453125 L 24.078125 -5.453125 L 24.078125 -26.347656 L 18.625 -26.347656 L 18.625 -31.800781 L 7.722656 -31.800781 Z M 7.722656 -26.347656 L 2.269531 -26.347656 L 2.269531 -5.453125 L 7.722656 -5.453125 L 7.722656 0 L 18.625 0 L 18.625 -5.453125 L 7.722656 -5.453125 Z M 7.722656 -26.347656 "/></g></g></g><g fill="#ff00ff" fill-opacity="1"><g transform="translate(165.420828, 211.813559)"><g><path d="M 7.722656 -26.347656 L 18.625 -26.347656 L 18.625 -18.625 L 24.078125 -18.625 L 24.078125 -26.347656 L 18.625 -26.347656 L 18.625 -31.800781 L 2.269531 -31.800781 L 2.269531 0 L 7.722656 0 L 7.722656 -13.175781 L 18.625 -13.175781 L 18.625 0 L 24.078125 0 L 24.078125 -13.175781 L 18.625 -13.175781 L 18.625 -18.625 L 7.722656 -18.625 Z M 7.722656 -26.347656 "/></g></g></g><g fill="#ff00ff" fill-opacity="1"><g transform="translate(196.581825, 211.813559)"><g><path d="M 2.269531 -31.800781 L 2.269531 -26.347656 L 10.449219 -26.347656 L 10.449219 0 L 15.898438 0 L 15.898438 -26.347656 L 24.078125 -26.347656 L 24.078125 -31.800781 Z M 2.269531 -31.800781 "/></g></g></g><g fill="#ff00ff" fill-opacity="1"><g transform="translate(227.742825, 211.813559)"><g><path d="M 2.269531 -31.800781 L 2.269531 0 L 7.722656 0 L 7.722656 -20.898438 L 13.175781 -20.898438 L 13.175781 -15.445312 L 18.625 -15.445312 L 18.625 -9.992188 L 24.078125 -9.992188 L 24.078125 0 L 29.527344 0 L 29.527344 -31.800781 L 24.078125 -31.800781 L 24.078125 -15.445312 L 18.625 -15.445312 L 18.625 -20.898438 L 13.175781 -20.898438 L 13.175781 -26.347656 L 7.722656 -26.347656 L 7.722656 -31.800781 Z M 2.269531 -31.800781 "/></g></g></g><g fill="#ff00ff" fill-opacity="1"><g transform="translate(264.35461, 211.813559)"><g><path d="M 2.269531 0 L 7.722656 0 L 7.722656 -31.800781 L 2.269531 -31.800781 Z M 2.269531 0 "/></g></g></g><g fill="#ff00ff" fill-opacity="1"><g transform="translate(279.208666, 211.813559)"><g><path d="M 2.269531 -31.800781 L 2.269531 -26.347656 L 10.449219 -26.347656 L 10.449219 0 L 15.898438 0 L 15.898438 -26.347656 L 24.078125 -26.347656 L 24.078125 -31.800781 Z M 2.269531 -31.800781 "/></g></g></g><g fill="#ff00ff" fill-opacity="1"><g transform="translate(310.36966, 211.813559)"><g><path d="M 2.269531 -31.800781 L 2.269531 0 L 24.078125 0 L 24.078125 -5.453125 L 7.722656 -5.453125 L 7.722656 -13.175781 L 18.625 -13.175781 L 18.625 -18.625 L 7.722656 -18.625 L 7.722656 -26.347656 L 24.078125 -26.347656 L 24.078125 -31.800781 Z M 2.269531 -31.800781 "/></g></g></g><g fill="#00ffff" fill-opacity="1"><g transform="translate(137.676021, 212.665307)"><g><path d="M 7.722656 -26.347656 L 18.625 -26.347656 L 18.625 -5.453125 L 24.078125 -5.453125 L 24.078125 -26.347656 L 18.625 -26.347656 L 18.625 -31.800781 L 7.722656 -31.800781 Z M 7.722656 -26.347656 L 2.269531 -26.347656 L 2.269531 -5.453125 L 7.722656 -5.453125 L 7.722656 0 L 18.625 0 L 18.625 -5.453125 L 7.722656 -5.453125 Z M 7.722656 -26.347656 "/></g></g></g><g fill="#00ffff" fill-opacity="1"><g transform="translate(168.837019, 212.665307)"><g><path d="M 7.722656 -26.347656 L 18.625 -26.347656 L 18.625 -18.625 L 24.078125 -18.625 L 24.078125 -26.347656 L 18.625 -26.347656 L 18.625 -31.800781 L 2.269531 -31.800781 L 2.269531 0 L 7.722656 0 L 7.722656 -13.175781 L 18.625 -13.175781 L 18.625 0 L 24.078125 0 L 24.078125 -13.175781 L 18.625 -13.175781 L 18.625 -18.625 L 7.722656 -18.625 Z M 7.722656 -26.347656 "/></g></g></g><g fill="#00ffff" fill-opacity="1"><g transform="translate(199.998016, 212.665307)"><g><path d="M 2.269531 -31.800781 L 2.269531 -26.347656 L 10.449219 -26.347656 L 10.449219 0 L 15.898438 0 L 15.898438 -26.347656 L 24.078125 -26.347656 L 24.078125 -31.800781 Z M 2.269531 -31.800781 "/></g></g></g><g fill="#00ffff" fill-opacity="1"><g transform="translate(231.159016, 212.665307)"><g><path d="M 2.269531 -31.800781 L 2.269531 0 L 7.722656 0 L 7.722656 -20.898438 L 13.175781 -20.898438 L 13.175781 -15.445312 L 18.625 -15.445312 L 18.625 -9.992188 L 24.078125 -9.992188 L 24.078125 0 L 29.527344 0 L 29.527344 -31.800781 L 24.078125 -31.800781 L 24.078125 -15.445312 L 18.625 -15.445312 L 18.625 -20.898438 L 13.175781 -20.898438 L 13.175781 -26.347656 L 7.722656 -26.347656 L 7.722656 -31.800781 Z M 2.269531 -31.800781 "/></g></g></g><g fill="#00ffff" fill-opacity="1"><g transform="translate(267.770801, 212.665307)"><g><path d="M 2.269531 0 L 7.722656 0 L 7.722656 -31.800781 L 2.269531 -31.800781 Z M 2.269531 0 "/></g></g></g><g fill="#00ffff" fill-opacity="1"><g transform="translate(282.624857, 212.665307)"><g><path d="M 2.269531 -31.800781 L 2.269531 -26.347656 L 10.449219 -26.347656 L 10.449219 0 L 15.898438 0 L 15.898438 -26.347656 L 24.078125 -26.347656 L 24.078125 -31.800781 Z M 2.269531 -31.800781 "/></g></g></g><g fill="#00ffff" fill-opacity="1"><g transform="translate(313.785851, 212.665307)"><g><path d="M 2.269531 -31.800781 L 2.269531 0 L 24.078125 0 L 24.078125 -5.453125 L 7.722656 -5.453125 L 7.722656 -13.175781 L 18.625 -13.175781 L 18.625 -18.625 L 7.722656 -18.625 L 7.722656 -26.347656 L 24.078125 -26.347656 L 24.078125 -31.800781 Z M 2.269531 -31.800781 "/></g></g></g><g fill="#3b1b72" fill-opacity="1"><g transform="translate(135.967927, 212.239432)"><g><path d="M 7.722656 -26.347656 L 18.625 -26.347656 L 18.625 -5.453125 L 24.078125 -5.453125 L 24.078125 -26.347656 L 18.625 -26.347656 L 18.625 -31.800781 L 7.722656 -31.800781 Z M 7.722656 -26.347656 L 2.269531 -26.347656 L 2.269531 -5.453125 L 7.722656 -5.453125 L 7.722656 0 L 18.625 0 L 18.625 -5.453125 L 7.722656 -5.453125 Z M 7.722656 -26.347656 "/></g></g></g><g fill="#3b1b72" fill-opacity="1"><g transform="translate(167.128924, 212.239432)"><g><path d="M 7.722656 -26.347656 L 18.625 -26.347656 L 18.625 -18.625 L 24.078125 -18.625 L 24.078125 -26.347656 L 18.625 -26.347656 L 18.625 -31.800781 L 2.269531 -31.800781 L 2.269531 0 L 7.722656 0 L 7.722656 -13.175781 L 18.625 -13.175781 L 18.625 0 L 24.078125 0 L 24.078125 -13.175781 L 18.625 -13.175781 L 18.625 -18.625 L 7.722656 -18.625 Z M 7.722656 -26.347656 "/></g></g></g><g fill="#3b1b72" fill-opacity="1"><g transform="translate(198.289921, 212.239432)"><g><path d="M 2.269531 -31.800781 L 2.269531 -26.347656 L 10.449219 -26.347656 L 10.449219 0 L 15.898438 0 L 15.898438 -26.347656 L 24.078125 -26.347656 L 24.078125 -31.800781 Z M 2.269531 -31.800781 "/></g></g></g><g fill="#3b1b72" fill-opacity="1"><g transform="translate(229.450922, 212.239432)"><g><path d="M 2.269531 -31.800781 L 2.269531 0 L 7.722656 0 L 7.722656 -20.898438 L 13.175781 -20.898438 L 13.175781 -15.445312 L 18.625 -15.445312 L 18.625 -9.992188 L 24.078125 -9.992188 L 24.078125 0 L 29.527344 0 L 29.527344 -31.800781 L 24.078125 -31.800781 L 24.078125 -15.445312 L 18.625 -15.445312 L 18.625 -20.898438 L 13.175781 -20.898438 L 13.175781 -26.347656 L 7.722656 -26.347656 L 7.722656 -31.800781 Z M 2.269531 -31.800781 "/></g></g></g><g fill="#3b1b72" fill-opacity="1"><g transform="translate(266.062707, 212.239432)"><g><path d="M 2.269531 0 L 7.722656 0 L 7.722656 -31.800781 L 2.269531 -31.800781 Z M 2.269531 0 "/></g></g></g><g fill="#3b1b72" fill-opacity="1"><g transform="translate(280.916763, 212.239432)"><g><path d="M 2.269531 -31.800781 L 2.269531 -26.347656 L 10.449219 -26.347656 L 10.449219 0 L 15.898438 0 L 15.898438 -26.347656 L 24.078125 -26.347656 L 24.078125 -31.800781 Z M 2.269531 -31.800781 "/></g></g></g><g fill="#3b1b72" fill-opacity="1"><g transform="translate(312.077757, 212.239432)"><g><path d="M 2.269531 -31.800781 L 2.269531 0 L 24.078125 0 L 24.078125 -5.453125 L 7.722656 -5.453125 L 7.722656 -13.175781 L 18.625 -13.175781 L 18.625 -18.625 L 7.722656 -18.625 L 7.722656 -26.347656 L 24.078125 -26.347656 L 24.078125 -31.800781 Z M 2.269531 -31.800781 "/></g></g></g><g fill="#ff00ff" fill-opacity="1"><g transform="translate(225.372775, 234.069542)"><g><path d="M 1.167969 -16.375 L 1.167969 -13.566406 L 5.378906 -13.566406 L 5.378906 0 L 8.1875 0 L 8.1875 -13.566406 L 12.398438 -13.566406 L 12.398438 -16.375 Z M 1.167969 -16.375 "/></g></g></g><g fill="#ff00ff" fill-opacity="1"><g transform="translate(241.418231, 234.069542)"><g><path d="M 3.976562 -13.566406 L 9.589844 -13.566406 L 9.589844 -9.589844 L 12.398438 -9.589844 L 12.398438 -13.566406 L 9.589844 -13.566406 L 9.589844 -16.375 L 1.167969 -16.375 L 1.167969 0 L 3.976562 0 L 3.976562 -6.785156 L 9.589844 -6.785156 L 9.589844 0 L 12.398438 0 L 12.398438 -6.785156 L 9.589844 -6.785156 L 9.589844 -9.589844 L 3.976562 -9.589844 Z M 3.976562 -13.566406 "/></g></g></g><g fill="#ff00ff" fill-opacity="1"><g transform="translate(257.463686, 234.069542)"><g><path d="M 3.976562 -13.566406 L 9.589844 -13.566406 L 9.589844 -9.589844 L 3.976562 -9.589844 L 3.976562 -13.566406 L 1.167969 -13.566406 L 1.167969 0 L 3.976562 0 L 3.976562 -6.785156 L 9.589844 -6.785156 L 9.589844 0 L 12.398438 0 L 12.398438 -13.566406 L 9.589844 -13.566406 L 9.589844 -16.375 L 3.976562 -16.375 Z M 3.976562 -13.566406 "/></g></g></g><g fill="#ff00ff" fill-opacity="1"><g transform="translate(273.509143, 234.069542)"><g><path d="M 1.167969 -13.566406 L 1.167969 -2.808594 L 3.976562 -2.808594 L 3.976562 0 L 9.589844 0 L 9.589844 -2.808594 L 3.976562 -2.808594 L 3.976562 -13.566406 Z M 3.976562 -16.375 L 3.976562 -13.566406 L 9.589844 -13.566406 L 9.589844 -10.761719 L 12.398438 -10.761719 L 12.398438 -13.566406 L 9.589844 -13.566406 L 9.589844 -16.375 Z M 12.398438 -2.808594 L 12.398438 -5.613281 L 9.589844 -5.613281 L 9.589844 -2.808594 Z M 12.398438 -2.808594 "/></g></g></g><g fill="#ff00ff" fill-opacity="1"><g transform="translate(289.554597, 234.069542)"><g><path d="M 3.976562 -9.589844 L 3.976562 -16.375 L 1.167969 -16.375 L 1.167969 0 L 3.976562 0 L 3.976562 -6.785156 L 6.785156 -6.785156 L 6.785156 -3.976562 L 9.589844 -3.976562 L 9.589844 0 L 12.398438 0 L 12.398438 -3.976562 L 9.589844 -3.976562 L 9.589844 -6.785156 L 6.785156 -6.785156 L 6.785156 -9.589844 Z M 9.589844 -16.375 L 9.589844 -12.398438 L 12.398438 -12.398438 L 12.398438 -16.375 Z M 6.785156 -12.398438 L 6.785156 -9.589844 L 9.589844 -9.589844 L 9.589844 -12.398438 Z M 6.785156 -12.398438 "/></g></g></g><g fill="#ff00ff" fill-opacity="1"><g transform="translate(305.60005, 234.069542)"><g><path d="M 1.167969 -16.375 L 1.167969 0 L 12.398438 0 L 12.398438 -2.808594 L 3.976562 -2.808594 L 3.976562 -6.785156 L 9.589844 -6.785156 L 9.589844 -9.589844 L 3.976562 -9.589844 L 3.976562 -13.566406 L 12.398438 -13.566406 L 12.398438 -16.375 Z M 1.167969 -16.375 "/></g></g></g><g fill="#ff00ff" fill-opacity="1"><g transform="translate(321.668893, 234.069542)"><g><path d="M 3.976562 -13.566406 L 9.589844 -13.566406 L 9.589844 -9.589844 L 12.398438 -9.589844 L 12.398438 -13.566406 L 9.589844 -13.566406 L 9.589844 -16.375 L 1.167969 -16.375 L 1.167969 0 L 3.976562 0 L 3.976562 -6.785156 L 9.589844 -6.785156 L 9.589844 0 L 12.398438 0 L 12.398438 -6.785156 L 9.589844 -6.785156 L 9.589844 -9.589844 L 3.976562 -9.589844 Z M 3.976562 -13.566406 "/></g></g></g><g fill="#00ffff" fill-opacity="1"><g transform="translate(227.699299, 234.649619)"><g><path d="M 1.167969 -16.375 L 1.167969 -13.566406 L 5.378906 -13.566406 L 5.378906 0 L 8.1875 0 L 8.1875 -13.566406 L 12.398438 -13.566406 L 12.398438 -16.375 Z M 1.167969 -16.375 "/></g></g></g><g fill="#00ffff" fill-opacity="1"><g transform="translate(243.744754, 234.649619)"><g><path d="M 3.976562 -13.566406 L 9.589844 -13.566406 L 9.589844 -9.589844 L 12.398438 -9.589844 L 12.398438 -13.566406 L 9.589844 -13.566406 L 9.589844 -16.375 L 1.167969 -16.375 L 1.167969 0 L 3.976562 0 L 3.976562 -6.785156 L 9.589844 -6.785156 L 9.589844 0 L 12.398438 0 L 12.398438 -6.785156 L 9.589844 -6.785156 L 9.589844 -9.589844 L 3.976562 -9.589844 Z M 3.976562 -13.566406 "/></g></g></g><g fill="#00ffff" fill-opacity="1"><g transform="translate(259.79021, 234.649619)"><g><path d="M 3.976562 -13.566406 L 9.589844 -13.566406 L 9.589844 -9.589844 L 3.976562 -9.589844 L 3.976562 -13.566406 L 1.167969 -13.566406 L 1.167969 0 L 3.976562 0 L 3.976562 -6.785156 L 9.589844 -6.785156 L 9.589844 0 L 12.398438 0 L 12.398438 -13.566406 L 9.589844 -13.566406 L 9.589844 -16.375 L 3.976562 -16.375 Z M 3.976562 -13.566406 "/></g></g></g><g fill="#00ffff" fill-opacity="1"><g transform="translate(275.835667, 234.649619)"><g><path d="M 1.167969 -13.566406 L 1.167969 -2.808594 L 3.976562 -2.808594 L 3.976562 0 L 9.589844 0 L 9.589844 -2.808594 L 3.976562 -2.808594 L 3.976562 -13.566406 Z M 3.976562 -16.375 L 3.976562 -13.566406 L 9.589844 -13.566406 L 9.589844 -10.761719 L 12.398438 -10.761719 L 12.398438 -13.566406 L 9.589844 -13.566406 L 9.589844 -16.375 Z M 12.398438 -2.808594 L 12.398438 -5.613281 L 9.589844 -5.613281 L 9.589844 -2.808594 Z M 12.398438 -2.808594 "/></g></g></g><g fill="#00ffff" fill-opacity="1"><g transform="translate(291.88112, 234.649619)"><g><path d="M 3.976562 -9.589844 L 3.976562 -16.375 L 1.167969 -16.375 L 1.167969 0 L 3.976562 0 L 3.976562 -6.785156 L 6.785156 -6.785156 L 6.785156 -3.976562 L 9.589844 -3.976562 L 9.589844 0 L 12.398438 0 L 12.398438 -3.976562 L 9.589844 -3.976562 L 9.589844 -6.785156 L 6.785156 -6.785156 L 6.785156 -9.589844 Z M 9.589844 -16.375 L 9.589844 -12.398438 L 12.398438 -12.398438 L 12.398438 -16.375 Z M 6.785156 -12.398438 L 6.785156 -9.589844 L 9.589844 -9.589844 L 9.589844 -12.398438 Z M 6.785156 -12.398438 "/></g></g></g><g fill="#00ffff" fill-opacity="1"><g transform="translate(307.926574, 234.649619)"><g><path d="M 1.167969 -16.375 L 1.167969 0 L 12.398438 0 L 12.398438 -2.808594 L 3.976562 -2.808594 L 3.976562 -6.785156 L 9.589844 -6.785156 L 9.589844 -9.589844 L 3.976562 -9.589844 L 3.976562 -13.566406 L 12.398438 -13.566406 L 12.398438 -16.375 Z M 1.167969 -16.375 "/></g></g></g><g fill="#00ffff" fill-opacity="1"><g transform="translate(323.995417, 234.649619)"><g><path d="M 3.976562 -13.566406 L 9.589844 -13.566406 L 9.589844 -9.589844 L 12.398438 -9.589844 L 12.398438 -13.566406 L 9.589844 -13.566406 L 9.589844 -16.375 L 1.167969 -16.375 L 1.167969 0 L 3.976562 0 L 3.976562 -6.785156 L 9.589844 -6.785156 L 9.589844 0 L 12.398438 0 L 12.398438 -6.785156 L 9.589844 -6.785156 L 9.589844 -9.589844 L 3.976562 -9.589844 Z M 3.976562 -13.566406 "/></g></g></g><g fill="#3b1b72" fill-opacity="1"><g transform="translate(226.536036, 234.359582)"><g><path d="M 1.167969 -16.375 L 1.167969 -13.566406 L 5.378906 -13.566406 L 5.378906 0 L 8.1875 0 L 8.1875 -13.566406 L 12.398438 -13.566406 L 12.398438 -16.375 Z M 1.167969 -16.375 "/></g></g></g><g fill="#3b1b72" fill-opacity="1"><g transform="translate(242.581491, 234.359582)"><g><path d="M 3.976562 -13.566406 L 9.589844 -13.566406 L 9.589844 -9.589844 L 12.398438 -9.589844 L 12.398438 -13.566406 L 9.589844 -13.566406 L 9.589844 -16.375 L 1.167969 -16.375 L 1.167969 0 L 3.976562 0 L 3.976562 -6.785156 L 9.589844 -6.785156 L 9.589844 0 L 12.398438 0 L 12.398438 -6.785156 L 9.589844 -6.785156 L 9.589844 -9.589844 L 3.976562 -9.589844 Z M 3.976562 -13.566406 "/></g></g></g><g fill="#3b1b72" fill-opacity="1"><g transform="translate(258.626947, 234.359582)"><g><path d="M 3.976562 -13.566406 L 9.589844 -13.566406 L 9.589844 -9.589844 L 3.976562 -9.589844 L 3.976562 -13.566406 L 1.167969 -13.566406 L 1.167969 0 L 3.976562 0 L 3.976562 -6.785156 L 9.589844 -6.785156 L 9.589844 0 L 12.398438 0 L 12.398438 -13.566406 L 9.589844 -13.566406 L 9.589844 -16.375 L 3.976562 -16.375 Z M 3.976562 -13.566406 "/></g></g></g><g fill="#3b1b72" fill-opacity="1"><g transform="translate(274.672404, 234.359582)"><g><path d="M 1.167969 -13.566406 L 1.167969 -2.808594 L 3.976562 -2.808594 L 3.976562 0 L 9.589844 0 L 9.589844 -2.808594 L 3.976562 -2.808594 L 3.976562 -13.566406 Z M 3.976562 -16.375 L 3.976562 -13.566406 L 9.589844 -13.566406 L 9.589844 -10.761719 L 12.398438 -10.761719 L 12.398438 -13.566406 L 9.589844 -13.566406 L 9.589844 -16.375 Z M 12.398438 -2.808594 L 12.398438 -5.613281 L 9.589844 -5.613281 L 9.589844 -2.808594 Z M 12.398438 -2.808594 "/></g></g></g><g fill="#3b1b72" fill-opacity="1"><g transform="translate(290.717857, 234.359582)"><g><path d="M 3.976562 -9.589844 L 3.976562 -16.375 L 1.167969 -16.375 L 1.167969 0 L 3.976562 0 L 3.976562 -6.785156 L 6.785156 -6.785156 L 6.785156 -3.976562 L 9.589844 -3.976562 L 9.589844 0 L 12.398438 0 L 12.398438 -3.976562 L 9.589844 -3.976562 L 9.589844 -6.785156 L 6.785156 -6.785156 L 6.785156 -9.589844 Z M 9.589844 -16.375 L 9.589844 -12.398438 L 12.398438 -12.398438 L 12.398438 -16.375 Z M 6.785156 -12.398438 L 6.785156 -9.589844 L 9.589844 -9.589844 L 9.589844 -12.398438 Z M 6.785156 -12.398438 "/></g></g></g><g fill="#3b1b72" fill-opacity="1"><g transform="translate(306.763311, 234.359582)"><g><path d="M 1.167969 -16.375 L 1.167969 0 L 12.398438 0 L 12.398438 -2.808594 L 3.976562 -2.808594 L 3.976562 -6.785156 L 9.589844 -6.785156 L 9.589844 -9.589844 L 3.976562 -9.589844 L 3.976562 -13.566406 L 12.398438 -13.566406 L 12.398438 -16.375 Z M 1.167969 -16.375 "/></g></g></g><g fill="#3b1b72" fill-opacity="1"><g transform="translate(322.832154, 234.359582)"><g><path d="M 3.976562 -13.566406 L 9.589844 -13.566406 L 9.589844 -9.589844 L 12.398438 -9.589844 L 12.398438 -13.566406 L 9.589844 -13.566406 L 9.589844 -16.375 L 1.167969 -16.375 L 1.167969 0 L 3.976562 0 L 3.976562 -6.785156 L 9.589844 -6.785156 L 9.589844 0 L 12.398438 0 L 12.398438 -6.785156 L 9.589844 -6.785156 L 9.589844 -9.589844 L 3.976562 -9.589844 Z M 3.976562 -13.566406 "/></g></g></g></svg>